<?xml version="1.0" encoding="UTF-8" standalone="no"?>
<!DOCTYPE svg  PUBLIC '-//W3C//DTD SVG 1.1//EN'  'http://www.w3.org/Graphics/SVG/1.1/DTD/svg11.dtd'>
<svg xmlns="http://www.w3.org/2000/svg" version="1.1">
<defs>
<font id="Rockwell-BoldItalic" horiz-adv-x="333">
<font-face underline-thickness="50" cap-height="679" unicode-range="U+0020-00FE" descent="-200" panose-1="0 0 0 0 0 0 0 0 0 0" bbox="-119 -222 1084 929" underline-position="-150" units-per-em="1000" font-style="italic" font-weight="700" ascent="800" x-height="473" slope="-13" font-family="Rockwell"/>
<missing-glyph/>
<glyph horiz-adv-x="250" glyph-name="space" unicode=" "/>
<glyph glyph-name="exclam" d="M51 0l35 153h153l-35 -153h-153zM147 237l23 256l43 186h141l-43 -186l-97 -256h-67z" unicode="!"/>
<glyph horiz-adv-x="552" glyph-name="quotedbl" d="M399 336l-14 179v164h108v-164l-14 -179h-80zM161 336l-14 179v164h108v-164l-14 -179h-80z" unicode='&quot;'/>
<glyph horiz-adv-x="668" glyph-name="numbersign" d="M79 514h146l38 183h114l-38 -183h149l37 183h115l-38 -183h74v-109h-96l-28 -130h124v-109h-146l-39 -179h-114l39 179h-152l-38 -179h-114l38 179h-71v109h95l27 130h-122v109zM315 405l-27 -130h151l27 130h-151z" unicode="#"/>
<glyph horiz-adv-x="500" glyph-name="dollar" d="M161 -93l21 93q-76 17 -113 72.5t-25 127.5h112q-11 -85 48 -108l45 199q-119 77 -119 188q0 79 57 131.5t149 56.5l8 32h62l-9 -37q75 -16 113 -65.5t13 -135.5h-106q23 78 -41 109l-43 -186q75 -47 107.5 -92t32.5 -99q0 -35 -12.5 -69.5t-37.5 -66.5t-72 -50.5 t-109 -16.5l-19 -83h-62zM280 425l36 153q-73 -17 -73 -78q0 -38 37 -75zM303 253l-39 -168q36 4 62.5 31t26.5 61q0 44 -50 76z" unicode="$"/>
<glyph horiz-adv-x="927" glyph-name="percent" d="M557 126q0 91 54.5 152.5t134.5 61.5q64 0 99.5 -36t35.5 -100q0 -91 -54 -154t-133 -63q-65 0 -101 36.5t-36 102.5zM742 277q-34 0 -54.5 -72t-20.5 -110q0 -45 30 -45q34 0 54 72.5t20 117.5q0 37 -29 37zM124 473q0 91 54.5 152.5t134.5 61.5q64 0 99.5 -36 t35.5 -100q0 -91 -54 -154t-133 -63q-65 0 -101 36.5t-36 102.5zM309 624q-34 0 -54.5 -72t-20.5 -110q0 -45 30 -45q34 0 54 72.5t20 117.5q0 37 -29 37zM136 0l651 679h88l-651 -679h-88z" unicode="%"/>
<glyph horiz-adv-x="740" glyph-name="ampersand" d="M703 106l-25 -106h-130l-44 68q-110 -80 -225 -80q-104 0 -164.5 63t-60.5 143q0 81 58.5 143.5t150.5 101.5q-29 52 -29 96q0 65 55 110t135 45q69 0 114 -36.5t45 -93.5q0 -48 -33 -87t-108 -74l89 -137q26 43 67 149h170l-25 -106h-65q-38 -94 -80 -145l36 -54h69z M441 157l-123 192q-121 -55 -121 -141q0 -46 30.5 -78.5t74.5 -32.5q63 0 139 60zM387 486q90 33 90 76q0 19 -14.5 32t-37.5 13q-26 0 -42.5 -16.5t-16.5 -41.5q0 -27 21 -63z" unicode="&amp;"/>
<glyph horiz-adv-x="281" glyph-name="quotesingle" d="M145 336l-14 179v164h108v-164l-14 -179h-80z" unicode="&apos;"/>
<glyph horiz-adv-x="344" glyph-name="parenleft" d="M261 -121l-22 -94q-173 104 -173 337q0 81 25 169.5t70.5 171.5t121 146t165.5 83l-21 -93q-55 -23 -101 -93t-71.5 -156.5t-39.5 -168t-14 -141.5q0 -108 60 -161z" unicode="("/>
<glyph horiz-adv-x="344" glyph-name="parenright" d="M108 598l22 94q173 -104 173 -337q0 -81 -25 -169.5t-70.5 -171.5t-121 -146t-165.5 -83l21 93q55 23 101 93t71.5 156.5t39.5 168t14 141.5q0 108 -60 161z" unicode=")"/>
<glyph horiz-adv-x="563" glyph-name="asterisk" d="M501 232l-110 -44l-34 79q10 43 -19 125q-54 -54 -66 -105l-62 -55l-80 88l63 55q24 3 45 11.5t33.5 16.5t37.5 25q-78 36 -123 34l-74 46l65 103l73 -45q10 -24 26.5 -43t55.5 -50q10 90 -4 132l18 80l116 -28l-19 -79q-47 -45 -63 -116q52 11 78 20t43 26l83 8l10 -120 l-80 -10q-21 12 -43.5 17.5t-38.5 6.5t-48 1q20 -39 38 -60.5t46 -39.5z" unicode="*"/>
<glyph horiz-adv-x="668" glyph-name="plus" d="M441 401h212v-127h-212v-212h-127v212h-212v127h212v212h127v-212z" unicode="+"/>
<glyph glyph-name="comma" d="M60 0l35 153h153l-35 -153q-39 -173 -192 -179l16 69q73 16 94 110h-71z" unicode=","/>
<glyph horiz-adv-x="344" glyph-name="hyphen" d="M60 174l29 125h235l-29 -125h-235z" unicode="-"/>
<glyph glyph-name="period" d="M60 0l35 153h153l-35 -153h-153z" unicode="."/>
<glyph horiz-adv-x="508" glyph-name="slash" d="M409 679h139l-360 -693h-140z" unicode="/"/>
<glyph horiz-adv-x="542" glyph-name="zero" d="M80 228q0 43 10 99.5t33.5 120.5t56.5 117.5t84 89t111 35.5q80 0 127.5 -62t47.5 -167q0 -66 -18 -144t-52 -153t-93.5 -125t-132.5 -50q-80 0 -127 64t-47 175zM263 91q22 0 43 21q39 39 76.5 195t37.5 212q0 32 -14 50.5t-38 18.5q-22 0 -42 -20q-40 -40 -77.5 -200 t-37.5 -205q0 -72 52 -72z" unicode="0"/>
<glyph horiz-adv-x="542" glyph-name="one" d="M86 0l23 101h78l110 477h-78l24 101h223l-134 -578h73l-23 -101h-296z" unicode="1"/>
<glyph horiz-adv-x="542" glyph-name="two" d="M482 224l-52 -224h-389l9 49q13 69 54 132.5t90.5 109.5t97 88t79.5 84t32 81q0 19 -14 31.5t-35 12.5q-38 0 -68.5 -40.5t-46.5 -114.5h-128q59 257 263 257q79 0 126 -42t47 -112q0 -82 -67 -149q-23 -23 -92.5 -74.5t-128 -105.5t-84.5 -106h172l29 123h106z" unicode="2"/>
<glyph horiz-adv-x="542" glyph-name="three" d="M58 221h126q-13 -59 5 -94.5t59 -35.5q33 0 56 26.5t31.5 55.5t8.5 53q0 40 -22 58.5t-71 18.5h-12l24 102q75 4 107 36q16 16 27 44.5t11 55.5q0 20 -14.5 33.5t-36.5 13.5q-32 0 -55 -24.5t-33 -70.5h-128q22 100 76.5 148.5t144.5 48.5q85 0 135 -44t50 -119 q0 -67 -42 -116t-117 -60v-2q101 -40 101 -148q0 -88 -67 -150t-163 -62q-106 0 -162 60.5t-39 171.5z" unicode="3"/>
<glyph horiz-adv-x="542" glyph-name="four" d="M160 0l21 91h64l22 95h-200l-9 113l330 392h131l-96 -417h103l-21 -88h-103l-22 -95h64l-21 -91h-263zM288 274l57 247l-2 2l-206 -249h151z" unicode="4"/>
<glyph horiz-adv-x="542" glyph-name="five" d="M68 212h128q-15 -58 -1 -89.5t50 -31.5q30 0 54.5 23t37.5 56t19.5 61t6.5 45q0 29 -16 47t-40 18q-46 0 -73 -40l-98 61l91 317h347l-37 -161h-97l6 60h-143l-40 -150q99 36 171 -17.5t72 -155.5q0 -112 -75.5 -189t-185.5 -77q-97 0 -145 59t-32 164z" unicode="5"/>
<glyph horiz-adv-x="542" glyph-name="six" d="M569 486h-118q12 49 -4 74t-51 25q-41 0 -74 -41.5t-64 -139.5q45 23 88 23q71 0 115.5 -51t44.5 -132q0 -103 -70.5 -179t-166.5 -76q-86 0 -136.5 58.5t-50.5 159.5q0 93 42 218t112 195t166 70q76 0 129 -51t38 -153zM228 280q-18 -67 -18 -107q0 -36 17 -57t46 -21 q39 0 69.5 45t30.5 103q0 36 -19 58.5t-49 22.5q-45 0 -77 -44z" unicode="6"/>
<glyph horiz-adv-x="542" glyph-name="seven" d="M70 0l23 101h72q69 245 279 477h-202l-20 -83h-106l43 184h435l-23 -102q-78 -90 -149.5 -230.5t-99.5 -245.5h67l-23 -101h-296z" unicode="7"/>
<glyph horiz-adv-x="542" glyph-name="eight" d="M222 367q-63 51 -63 122q0 76 58.5 138.5t159.5 62.5q81 0 130.5 -46.5t49.5 -122.5q0 -59 -33.5 -110t-98.5 -68q73 -54 73 -133q0 -91 -70 -156t-167 -65q-79 0 -136.5 44t-57.5 129q0 73 40.5 126t114.5 79zM285 443q0 -45 46 -45q32 0 54.5 27t30 58t7.5 61 q0 20 -13.5 32t-35.5 12q-25 0 -44 -18.5t-28 -44.5t-13 -47t-4 -35zM208 149q0 -27 14.5 -42.5t40.5 -15.5q48 0 74 51t26 107q0 26 -14.5 42.5t-40.5 16.5q-36 0 -60.5 -33.5t-32 -67t-7.5 -58.5z" unicode="8"/>
<glyph horiz-adv-x="542" glyph-name="nine" d="M59 193h118q-12 -49 4 -74t51 -25q41 0 74 41.5t64 139.5q-45 -23 -88 -23q-71 0 -115.5 51t-44.5 132q0 103 70.5 179t166.5 76q86 0 136.5 -58.5t50.5 -159.5q0 -93 -42 -218t-112 -195t-166 -70q-76 0 -129 51t-38 153zM400 399q18 67 18 107q0 36 -17 57t-46 21 q-39 0 -69.5 -45t-30.5 -103q0 -36 19 -58.5t49 -22.5q45 0 77 44z" unicode="9"/>
<glyph glyph-name="colon" d="M135 320l35 153h153l-35 -153h-153zM60 0l35 153h153l-35 -153h-153z" unicode=":"/>
<glyph glyph-name="semicolon" d="M60 0l35 153h153l-35 -153q-39 -173 -192 -179l16 69q73 16 94 110h-71zM135 320l35 153h153l-35 -153h-153z" unicode=";"/>
<glyph horiz-adv-x="667" glyph-name="less" d="M102 276v116l550 228v-138l-375 -148l375 -148v-138z" unicode="&lt;"/>
<glyph horiz-adv-x="667" glyph-name="equal" d="M102 280h551v-127h-551v127zM102 515h551v-127h-551v127z" unicode="="/>
<glyph horiz-adv-x="667" glyph-name="greater" d="M653 276l-550 -228v138l375 148l-375 148v138l550 -228v-116z" unicode="&gt;"/>
<glyph horiz-adv-x="542" glyph-name="question" d="M232 232l16 174q75 -4 123.5 27.5t48.5 81.5q0 34 -23.5 56t-61.5 22q-35 0 -61.5 -20.5t-36.5 -55.5h-142q28 78 93 124.5t169 46.5q99 0 153.5 -48t54.5 -125q0 -82 -63.5 -142.5t-172.5 -66.5l-32 -74h-65zM137 0l35 153h153l-35 -153h-153z" unicode="?"/>
<glyph horiz-adv-x="979" glyph-name="at" d="M474 89q47 0 83 42.5t51.5 95.5t15.5 100q0 52 -25 83t-63 31q-40 0 -71 -25t-47.5 -63.5t-25 -75.5t-8.5 -69q0 -58 24.5 -88.5t65.5 -30.5zM576 728q184 0 299 -105t115 -267q0 -144 -92.5 -250t-230.5 -106q-76 0 -89 57q-54 -57 -131 -57q-90 0 -139.5 60t-49.5 156 q0 43 16.5 95t46.5 101.5t83 83t117 33.5q86 0 130 -66l12 54h129l-80 -377q-8 -40 19 -40q16 0 43 17.5t56.5 48.5t50.5 83t21 111q0 48 -18 95t-54.5 89.5t-104 69t-155.5 26.5q-79 0 -145.5 -22t-113 -60.5t-79 -90t-48 -110t-15.5 -121.5q0 -170 107.5 -263t306.5 -93 q225 0 329 129h104q-111 -217 -443 -217q-129 0 -227 35.5t-156 97.5t-87 140.5t-29 170.5q0 64 15 129t52.5 131.5t93 117t143.5 82.5t198 32z" unicode="@"/>
<glyph horiz-adv-x="646" glyph-name="A" d="M-37 0l25 106h65l257 467h-66l24 106h393l-24 -106h-58l20 -467h70l-25 -106h-283l25 106h63v114h-206l-57 -114h63l-25 -106h-261zM445 317l-8 262h-7l-136 -262h151z" unicode="A"/>
<glyph horiz-adv-x="667" glyph-name="B" d="M31 106h67l108 467h-67l24 106h308q112 0 160.5 -49.5t48.5 -116.5q0 -64 -40 -106t-114 -57q104 -62 104 -156q0 -49 -23 -88.5t-58.5 -61.5t-74 -33t-75.5 -11h-393zM464 226q0 36 -23 58.5t-65 22.5h-58l-48 -206h81q59 0 86 40t27 85zM512 510q0 66 -72 66h-60 l-40 -173h63q59 0 84 30.5t25 76.5z" unicode="B"/>
<glyph horiz-adv-x="771" glyph-name="C" d="M638 235l109 -80q-63 -78 -150.5 -121t-183.5 -43q-144 0 -237.5 84.5t-93.5 215.5q0 162 135.5 280.5t320.5 118.5q65 0 108 -17.5t79 -58.5l15 65h109l-51 -221h-109q-7 53 -47.5 82.5t-105.5 29.5q-109 0 -191.5 -86t-82.5 -200q0 -73 44.5 -120t114.5 -47 q119 0 217 118z" unicode="C"/>
<glyph horiz-adv-x="760" glyph-name="D" d="M-8 0l25 106h82l107 467h-82l25 106h280q90 0 156.5 -26t102 -70.5t52 -95t16.5 -107.5q0 -166 -102.5 -273t-271.5 -107h-390zM271 106h103q47 0 84.5 24t59.5 59t36.5 78.5t19.5 79.5t5 65q0 71 -43 116t-117 45h-41z" unicode="D"/>
<glyph horiz-adv-x="635" glyph-name="E" d="M9 0l25 106h64l108 467h-64l24 106h555l-50 -216h-127l25 110h-192l-39 -174h159l-25 -106h-159l-43 -187h196l25 107h123l-50 -213h-555z" unicode="E"/>
<glyph horiz-adv-x="583" glyph-name="F" d="M-17 0l25 106h91l107 467h-100l25 106h583l-51 -220h-126l26 114h-185l-39 -174h141l-25 -106h-141l-43 -187h93l-25 -106h-356z" unicode="F"/>
<glyph horiz-adv-x="813" glyph-name="G" d="M734 679h109l-50 -218h-109q-1 49 -42.5 81t-104.5 32q-112 0 -194 -88.5t-82 -209.5q0 -71 44 -116t114 -45q68 0 110.5 26.5t53.5 69.5h-107l24 106h314q-20 -143 -132 -234.5t-279 -91.5q-80 0 -143.5 27t-101.5 71.5t-57.5 97.5t-19.5 109q0 105 61 196t165 144.5 t223 53.5q62 0 105.5 -15.5t85.5 -52.5z" unicode="G"/>
<glyph horiz-adv-x="740" glyph-name="H" d="M9 0l25 106h63l108 467h-64l25 106h295l-25 -106h-69l-38 -165h196l38 165h-63l25 106h277l-25 -106h-52l-107 -467h69l-25 -106h-295l24 106h65l44 196h-196l-44 -196h69l-25 -106h-295z" unicode="H"/>
<glyph horiz-adv-x="396" glyph-name="I" d="M-9 0l24 106h86l108 467h-96l24 106h343l-24 -106h-74l-108 -467h98l-25 -106h-356z" unicode="I"/>
<glyph horiz-adv-x="375" glyph-name="J" d="M494 679l-25 -106h-75l-116 -502q-32 -140 -101 -209q-50 -50 -127 -66t-169 10l32 113q91 -16 133 28.5t73 178.5l103 447h-89l25 106h336z" unicode="J"/>
<glyph horiz-adv-x="708" glyph-name="K" d="M7 0l25 106h67l107 467h-67l25 106h303l-24 -106h-64l-108 -467h64l-25 -106h-303zM393 0l25 106h64l-147 250l262 215v2h-70l25 106h297l-25 -106h-59l-263 -217l150 -250h64l-24 -106h-299z" unicode="K"/>
<glyph horiz-adv-x="604" glyph-name="L" d="M10 0l24 106h64l108 467h-81l25 106h317l-25 -106h-64l-107 -467h190l48 209h130l-73 -315h-556z" unicode="L"/>
<glyph horiz-adv-x="1021" glyph-name="M" d="M6 0l25 106h67l108 467h-68l25 106h301l56 -408h2l250 408h312l-25 -106h-52l-107 -467h70l-25 -106h-296l24 106h64l108 467h-13l-350 -573h-73l-78 573h-17l-108 -467h64l-24 -106h-240z" unicode="M"/>
<glyph horiz-adv-x="792" glyph-name="N" d="M10 0l25 106h64l107 467h-64l25 106h253l153 -470h2l83 364h-64l25 106h245l-25 -106h-64l-133 -579h-149l-175 547h-2l-99 -435h71l-25 -106h-253z" unicode="N"/>
<glyph horiz-adv-x="823" glyph-name="O" d="M84 273q0 106 54 201.5t155 156.5t224 61q98 0 170 -42t104.5 -104.5t32.5 -136.5q0 -175 -128 -296.5t-314 -121.5q-129 0 -213.5 80t-84.5 202zM500 572q-57 0 -104 -31.5t-74.5 -80t-42.5 -100.5t-15 -99q0 -70 38 -110t106 -40q63 0 112 35.5t74 88.5t37.5 102.5 t12.5 89.5q0 64 -40 104.5t-104 40.5z" unicode="O"/>
<glyph horiz-adv-x="646" glyph-name="P" d="M11 0l24 106h64l108 467h-76l25 106h291q129 0 188.5 -55.5t59.5 -145.5q0 -96 -65 -161q-69 -69 -227 -69h-99l-33 -142h82l-24 -106h-318zM328 354h58q69 0 101.5 40.5t32.5 94.5q0 84 -95 84h-46z" unicode="P"/>
<glyph horiz-adv-x="823" glyph-name="Q" d="M612 -73l-33 -99q-46 -4 -90 9.5t-71 32t-59 34.5t-56 16q-53 0 -105 -42l-18 76q47 40 107 45v2q-95 28 -149 100t-54 170q0 172 128 296.5t306 124.5q77 0 138 -25.5t96.5 -67.5t53.5 -90.5t18 -99.5q0 -73 -27.5 -144.5t-79 -132t-135.5 -99t-188 -40.5v-2 q13 -6 33.5 -15.5t29.5 -13.5l27 -12t25.5 -10t24.5 -7.5t24.5 -5t26 -2t27.5 1.5zM500 572q-57 0 -104 -31.5t-74.5 -80t-42.5 -100.5t-15 -99q0 -70 38 -110t106 -40q63 0 112 35.5t74 88.5t37.5 102.5t12.5 89.5q0 64 -40 104.5t-104 40.5z" unicode="Q"/>
<glyph horiz-adv-x="698" glyph-name="R" d="M8 0l25 106h67l108 467h-67l24 106h353q98 0 147.5 -56t49.5 -128q0 -64 -39.5 -119t-116.5 -64l58 -206h68l-25 -106h-173l-75 302h-95l-45 -196h65l-26 -106h-303zM337 389h73q57 0 93 25.5t36 81.5q0 37 -22.5 57t-58.5 20h-78z" unicode="R"/>
<glyph horiz-adv-x="510" glyph-name="S" d="M11 0l49 211h113q-13 -46 11 -74.5t61 -28.5q38 0 63 24.5t25 61.5q0 30 -20.5 60t-50 55.5t-59 53t-50 64t-20.5 77.5q0 28 9.5 56.5t29.5 57.5t59 47.5t91 18.5q83 0 133 -53l11 48h108l-42 -179h-108q7 31 -15 52t-60 21q-30 0 -47.5 -14t-17.5 -34q0 -23 21 -48.5 t50.5 -50.5t59.5 -54t51 -72t21 -92q0 -97 -62 -158.5t-156 -61.5q-42 0 -72 14.5t-61 48.5l-12 -51h-113z" unicode="S"/>
<glyph horiz-adv-x="688" glyph-name="T" d="M145 0l25 106h78l107 467h-107l-36 -159h-109l61 265h604l-61 -265h-109l37 159h-107l-107 -467h78l-25 -106h-329z" unicode="T"/>
<glyph horiz-adv-x="708" glyph-name="U" d="M148 573l24 106h295l-24 -106h-70l-79 -338q-16 -69 11 -98t77 -29q53 0 86 38.5t52 120.5l71 306h-64l24 106h233l-24 -106h-52l-79 -342q-31 -133 -103.5 -187.5t-179.5 -54.5q-119 0 -188 69q-62 62 -29 205l71 310h-52z" unicode="U"/>
<glyph horiz-adv-x="646" glyph-name="V" d="M205 -5l-64 578h-69l25 106h289l-25 -106h-60l33 -368h2l211 368h-60l25 106h260l-24 -106h-64l-338 -578h-141z" unicode="V"/>
<glyph horiz-adv-x="896" glyph-name="W" d="M467 297l-166 -302h-135l-36 578h-67l24 106h279l-24 -106h-61l19 -336h2l185 336h-68l24 106h245l-25 -106h-61l20 -336h2l185 336h-68l24 106h266l-24 -106h-62l-322 -578h-136l-18 302h-2z" unicode="W"/>
<glyph horiz-adv-x="677" glyph-name="X" d="M201 102h61l-23 -102h-275l24 106h58l239 261l-114 206h-66l25 106h294l-23 -102h-58l77 -143l123 143h-56l24 102h274l-24 -106h-63l-219 -247l121 -220h68l-24 -106h-298l24 102h64l-91 158z" unicode="X"/>
<glyph horiz-adv-x="625" glyph-name="Y" d="M126 0l25 106h64l43 187l-115 280h-67l25 106h282l-25 -106h-55l69 -188l160 188h-56l25 106h273l-24 -106h-64l-254 -280l-44 -187h70l-26 -106h-306z" unicode="Y"/>
<glyph horiz-adv-x="604" glyph-name="Z" d="M4 0l25 106l427 472h-189l-25 -107h-104l48 208h502l-21 -91l-436 -487h217l27 113h106l-50 -214h-527z" unicode="Z"/>
<glyph horiz-adv-x="385" glyph-name="bracketleft" d="M30 -202l204 881h260l-21 -92h-115l-161 -697h115l-22 -92h-260z" unicode="["/>
<glyph horiz-adv-x="508" glyph-name="backslash" d="M187 679l361 -693h-140l-360 693h139z" unicode="\"/>
<glyph horiz-adv-x="385" glyph-name="bracketright" d="M391 679l-204 -881h-260l21 92h115l161 697h-115l22 92h260z" unicode="]"/>
<glyph horiz-adv-x="583" glyph-name="asciicircum" d="M100 289l184 390h108l179 -390h-139l-96 239l-96 -239h-140z" unicode="^"/>
<glyph horiz-adv-x="500" glyph-name="underscore" d="M-6 -75h512v-50h-512v50z" unicode="_"/>
<glyph glyph-name="grave" d="M261 523l-185 176h174l90 -176h-79z" unicode="`"/>
<glyph horiz-adv-x="573" glyph-name="a" d="M554 101l-29 -101h-218l9 38q-70 -44 -128 -44q-62 0 -102 37t-40 94q0 76 61.5 125t178.5 49q27 0 87 -14l8 39q6 31 -18.5 49.5t-62.5 18.5q-47 0 -111 -32l-72 71q102 54 205 54q112 0 165.5 -51t33.5 -137l-46 -196h79zM336 126l18 78q-38 10 -72 10 q-45 0 -73.5 -21.5t-28.5 -54.5q0 -22 16.5 -37.5t39.5 -15.5q47 0 100 41z" unicode="a"/>
<glyph horiz-adv-x="604" glyph-name="b" d="M-7 0l24 101h52l110 477h-64l23 101h209l-60 -257l2 -2q57 65 135 65q73 0 119.5 -51.5t46.5 -132.5q0 -125 -73.5 -216t-174.5 -91q-80 0 -135 79l-17 -73h-197zM440 284q0 40 -19.5 65t-51.5 25q-58 0 -93.5 -58t-35.5 -124q0 -38 21 -62t55 -24q50 0 87 53.5t37 124.5 z" unicode="b"/>
<glyph horiz-adv-x="531" glyph-name="c" d="M395 173l104 -51q-82 -136 -227 -136q-98 0 -157.5 57.5t-59.5 152.5q0 116 81 199t195 83q61 0 114 -36l7 31h106l-41 -177h-106q-2 32 -23 50q-20 18 -55 18q-54 0 -91 -49t-37 -122q0 -40 23 -65.5t58 -25.5q66 0 109 71z" unicode="c"/>
<glyph horiz-adv-x="604" glyph-name="d" d="M576 101l-23 -101h-209l14 58l-2 2q-63 -67 -140 -67q-73 0 -118 53.5t-45 140.5q0 122 73.5 210t174.5 88q86 0 136 -80l40 173h-72l24 101h216l-133 -578h64zM279 108q54 0 90.5 59.5t36.5 110.5q0 44 -23.5 69t-59.5 25q-49 0 -85.5 -54t-36.5 -127q0 -38 20.5 -60.5 t57.5 -22.5z" unicode="d"/>
<glyph horiz-adv-x="552" glyph-name="e" d="M382 141l107 -48q-71 -107 -213 -107q-99 0 -157.5 55.5t-58.5 149.5q0 118 77.5 206t195.5 88q102 0 165.5 -73.5t37.5 -204.5h-336q-10 -61 15.5 -94t69.5 -33q61 0 97 61zM218 284h187q8 49 -16 77.5t-61 28.5q-75 0 -110 -106z" unicode="e"/>
<glyph glyph-name="f" d="M288 101l-23 -101h-257l23 101h48l63 271h-72l23 101h72q46 214 216 214q59 0 117 -37l-39 -97q-31 28 -62 28q-37 0 -55 -25.5t-32 -82.5h61l-23 -101h-61l-63 -271h64z" unicode="f"/>
<glyph horiz-adv-x="604" glyph-name="g" d="M-18 -176l44 105q93 -41 155 -41q135 0 161 112l13 52l-2 2q-34 -32 -62.5 -45t-64.5 -13q-77 0 -124 53.5t-47 142.5q0 114 74 200t173 86q84 0 131 -83l18 78h200l-23 -101h-52l-83 -357q-55 -237 -295 -237q-127 0 -216 46zM281 107q40 0 69 29.5t40.5 67t11.5 75.5 q0 35 -19.5 60.5t-56.5 25.5q-56 0 -90 -57.5t-34 -114.5q0 -37 20 -61.5t59 -24.5z" unicode="g"/>
<glyph horiz-adv-x="604" glyph-name="h" d="M5 0l23 101h52l110 477h-64l24 101h209l-62 -267q59 39 93 53t69 14q62 0 89.5 -46.5t10.5 -118.5l-50 -213h64l-23 -101h-209l70 303q7 28 -2 44.5t-28 16.5q-40 0 -108 -54l-48 -209h63l-23 -101h-260z" unicode="h"/>
<glyph glyph-name="i" d="M88 101l63 271h-64l23 101h209l-86 -372h64l-23 -101h-261l23 101h52zM196 613q0 33 23 56t56 23t56.5 -23t23.5 -56t-23.5 -56.5t-56.5 -23.5t-56 23.5t-23 56.5z" unicode="i"/>
<glyph horiz-adv-x="323" glyph-name="j" d="M174 372h-64l23 101h209l-108 -468q-26 -113 -78 -162t-146 -49q-35 0 -66 9l24 106q61 -6 85 18t39 90zM219 613q0 33 23 56t56 23t56.5 -23t23.5 -56t-23.5 -56.5t-56.5 -23.5t-56 23.5t-23 56.5z" unicode="j"/>
<glyph horiz-adv-x="573" glyph-name="k" d="M4 0l23 101h52l110 477h-66l24 101h211l-100 -431l2 -2l166 149h-79l18 78h244l-15 -91h-43l-143 -127l83 -154h60l-24 -101h-138l-131 246l-35 -150h52l-22 -96h-249z" unicode="k"/>
<glyph glyph-name="l" d="M10 0l23 101h52l110 477h-67l23 101h212l-133 -578h64l-23 -101h-261z" unicode="l"/>
<glyph horiz-adv-x="969" glyph-name="m" d="M-9 0l23 101h68l63 271h-85l23 101h230l-15 -66q64 40 104.5 56t78.5 16q94 0 122 -85q134 85 206 85q62 0 100.5 -42t22.5 -113l-51 -223h74l-23 -101h-219l66 281q9 38 -3 60t-41 22q-49 0 -133 -61l-48 -201h74l-23 -101h-219l65 281q19 82 -44 82q-56 0 -133 -61 l-47 -201h74l-23 -101h-287z" unicode="m"/>
<glyph horiz-adv-x="604" glyph-name="n" d="M3 0l23 101h52l63 271h-71l23 101h216l-14 -59q81 49 109 57q26 8 54 8q57 0 88.5 -42t15.5 -111l-52 -225h64l-23 -101h-209l69 299q8 33 -1.5 49.5t-29.5 16.5q-35 0 -108 -52l-49 -212h60l-23 -101h-257z" unicode="n"/>
<glyph horiz-adv-x="573" glyph-name="o" d="M57 183q0 128 84 215t207 87q101 0 153.5 -63t52.5 -144q0 -121 -83 -206.5t-209 -85.5q-91 0 -148 54.5t-57 142.5zM204 178q0 -39 18.5 -62.5t50.5 -23.5q62 0 98 66t36 134q0 39 -19.5 63t-52.5 24q-45 0 -76.5 -38t-43 -81t-11.5 -82z" unicode="o"/>
<glyph horiz-adv-x="604" glyph-name="p" d="M-51 -215l24 101h67l112 486h-67l23 101h212l-15 -62l2 -2q69 70 143 70q72 0 116.5 -53.5t44.5 -139.5q0 -125 -72 -212.5t-175 -87.5q-87 0 -138 78l-41 -178h78l-24 -101h-290zM260 187q0 -38 22.5 -63.5t56.5 -25.5q52 0 88 53t36 128q0 40 -20 63t-54 23 q-49 0 -89 -55t-40 -123z" unicode="p"/>
<glyph horiz-adv-x="604" glyph-name="q" d="M652 473l-24 -101h-52l-112 -486h60l-23 -101h-279l23 101h74l39 165l-2 2q-59 -67 -139 -67q-70 0 -116.5 52.5t-46.5 132.5q0 125 71.5 216t179.5 91q77 0 133 -77l17 72h197zM405 277q0 42 -21.5 66t-54.5 24q-60 0 -94 -58t-34 -120q0 -42 19.5 -66t54.5 -24 q58 0 94 56.5t36 121.5z" unicode="q"/>
<glyph horiz-adv-x="417" glyph-name="r" d="M5 0l23 101h57l63 271h-64l23 101h192l-32 -137l2 -2q6 9 22 31.5t20.5 28.5t17.5 22.5t18 21t16 15.5t18 12.5t19 7t22.5 5t24.5 -1t30 -3.5l-29 -126q-154 33 -195 -145l-23 -101h74l-23 -101h-276z" unicode="r"/>
<glyph horiz-adv-x="490" glyph-name="s" d="M8 0l38 163h93q8 -40 36 -59q27 -21 75 -21q43 0 67.5 13.5t24.5 37.5q0 23 -23.5 36.5t-55 18t-71 19t-62.5 37.5q-37 37 -37 85q0 65 54.5 106.5t139.5 41.5q63 0 110 -30l6 25h102l-32 -138h-97q-10 30 -29 41q-22 14 -58 14q-33 0 -53 -12.5t-20 -33.5 q0 -23 36 -33.5t89 -25t81 -42.5q38 -38 38 -91q0 -68 -59 -112.5t-151 -44.5q-81 0 -133 32l-6 -27h-103z" unicode="s"/>
<glyph glyph-name="t" d="M321 124l-26 -109q-61 -29 -122 -29q-46 0 -74 26.5t-28 69.5q0 32 8 66l52 224h-56l23 101h56l16 69l173 120l-44 -189h64l-23 -101h-64l-51 -219q-7 -27 -1.5 -39.5t27.5 -12.5q28 0 70 23z" unicode="t"/>
<glyph horiz-adv-x="604" glyph-name="u" d="M569 101l-24 -101h-209l15 62q-98 -67 -171 -67q-40 0 -70 29t-30 68q0 28 12 86l45 194h-64l24 101h209l-71 -305q-7 -27 1 -43t26 -16q19 0 52.5 16.5t59.5 38.5l48 208h-64l24 101h209l-86 -372h64z" unicode="u"/>
<glyph horiz-adv-x="510" glyph-name="v" d="M155 -6l-65 378h-52l23 101h248l-24 -101h-57l25 -224h2l129 224h-57l23 101h250l-23 -101h-64l-228 -378h-130z" unicode="v"/>
<glyph horiz-adv-x="760" glyph-name="w" d="M146 -6l-65 378h-57l23 101h239l-22 -97h-57l37 -219h2l149 316h101l53 -316h2l102 219h-60l22 97h224l-23 -101h-52l-181 -378h-128l-48 269h-2l-127 -269h-132z" unicode="w"/>
<glyph horiz-adv-x="500" glyph-name="x" d="M-17 0l24 101h57l137 142l-75 129h-57l24 101h149l60 -124l104 124h140l-23 -101h-50l-119 -125l86 -146h57l-23 -101h-153l-67 140l-121 -140h-150z" unicode="x"/>
<glyph horiz-adv-x="563" glyph-name="y" d="M15 -215l23 101h79l56 99l-72 387h-52l24 101h248l-24 -101h-57l25 -226h2l130 226h-57l23 101h247l-23 -101h-64l-340 -587h-168z" unicode="y"/>
<glyph horiz-adv-x="479" glyph-name="z" d="M-12 0l21 92l308 289h-117l-14 -61h-96l35 153h383l6 -3l-20 -89l-308 -289h143l18 80h98l-39 -172h-418z" unicode="z"/>
<glyph horiz-adv-x="385" glyph-name="braceleft" d="M73 177v112q60 0 83.5 35t23.5 107v61q0 44 6 73.5t24 57.5t56 42t98 14h43v-115h-43t-28 -6.5t-18.5 -11.5t-8.5 -25.5t-4 -37v-56.5q0 -81 -19.5 -121.5t-69.5 -72.5q50 -32 69.5 -72.5t19.5 -121.5v-56.5t4 -37t8.5 -25.5t18.5 -11.5t28 -6.5h43v-115h-43 q-60 0 -98 14t-56 42t-24 57.5t-6 73.5v61q0 72 -23.5 107t-83.5 35z" unicode="{"/>
<glyph horiz-adv-x="611" glyph-name="bar" d="M285 679h129v-894h-129v894z" unicode="|"/>
<glyph horiz-adv-x="385" glyph-name="braceright" d="M400 289v-112q-60 0 -83.5 -35t-23.5 -107v-61q0 -44 -6 -73.5t-24 -57.5t-56 -42t-98 -14h-43v115h43t28 6.5t18.5 11.5t8.5 25.5t4 37v56.5q0 81 19.5 121.5t69.5 72.5q-50 32 -69.5 72.5t-19.5 121.5v56.5t-4 37t-8.5 25.5t-18.5 11.5t-28 6.5h-43v115h43q60 0 98 -14 t56 -42t24 -57.5t6 -73.5v-61q0 -72 23.5 -107t83.5 -35z" unicode="}"/>
<glyph horiz-adv-x="583" glyph-name="asciitilde" d="M76 254v126q63 67 147 67q55 0 130.5 -32.5t107.5 -32.5q71 0 134 69v-132q-28 -27 -67 -46t-76 -19q-45 0 -123 34.5t-119 34.5q-68 0 -134 -69z" unicode="~"/>
<glyph glyph-name="exclamdown" d="M317 473l-35 -153h-153l35 153h153zM221 236l-23 -256l-43 -186h-141l43 186l97 256h67z" unicode="¡"/>
<glyph horiz-adv-x="531" glyph-name="cent" d="M191 -184h-64l65 184q-65 19 -101 70.5t-36 125.5q0 54 22 107t61 95.5t98 64.5t127 13l64 178h65l-74 -195q16 -6 27 -17l7 31h106l-41 -178h-102q-3 37 -36 54l-88 -250q61 6 106 72l102 -51q-38 -68 -102 -104.5t-146 -29.5zM238 117l87 245q-56 -3 -88 -53t-32 -116 q0 -45 33 -76z" unicode="¢"/>
<glyph horiz-adv-x="510" glyph-name="sterling" d="M431 178h80q-14 -86 -63.5 -138t-117.5 -52q-54 0 -97 51q-27 -27 -48 -37.5t-48 -10.5q-41 0 -66.5 25.5t-25.5 66.5q0 46 32 77.5t77 31.5q29 0 62 -14q3 44 -8 107h-130l22 94h92q-27 152 28.5 232t166.5 80q96 0 141 -52.5t20 -137.5h-116q8 21 8 41q0 27 -13.5 42 t-37.5 15q-34 0 -52.5 -30.5t-18.5 -86.5q0 -42 9 -103h134l-22 -94h-112q-8 -99 -35 -149q35 -28 70 -28q48 0 69 70zM192 91q-28 37 -51 37q-18 0 -30 -11.5t-12 -28.5q0 -16 11.5 -26t28.5 -10q31 0 53 39z" unicode="£"/>
<glyph horiz-adv-x="667" glyph-name="currency" d="M67 525l83 84l67 -69q55 33 115 33q59 0 118 -33l67 69l83 -84l-67 -68q31 -58 31 -117q0 -62 -31 -114l67 -67l-83 -83l-67 66q-60 -33 -120 -33t-113 33l-67 -66l-83 83l67 67q-32 58 -32 119q0 60 32 112zM333 456q-47 0 -81 -34t-34 -81t34 -81t81 -34 q48 0 81.5 33.5t33.5 81.5q0 47 -33.5 81t-81.5 34z" unicode="¤"/>
<glyph horiz-adv-x="625" glyph-name="yen" d="M328 504h145l59 69h-56l25 106h273l-24 -106h-64l-63 -69h102l-16 -68h-147l-123 -135h234l-16 -68h-239l-30 -127h70l-26 -106h-306l25 106h64l29 127h-203l17 68h197l-56 135h-141l16 68h97l-28 69h-67l25 106h282l-25 -106h-55zM433 436h-94l29 -74z" unicode="¥"/>
<glyph horiz-adv-x="611" glyph-name="brokenbar" d="M285 166h129v-381h-129v381zM285 679h129v-381h-129v381z" unicode="¦"/>
<glyph horiz-adv-x="510" glyph-name="section" d="M22 -54l116 28q-2 -43 24.5 -68.5t64.5 -25.5q31 0 51.5 16.5t20.5 40.5t-26 51t-63 52.5t-74.5 54t-63.5 67t-26 79.5q0 55 38.5 102.5t105.5 73.5q-49 50 -49 116q0 71 54.5 114t144.5 43q188 0 205 -159l-118 -21q3 38 -20.5 61.5t-65.5 23.5q-34 0 -53 -16.5 t-19 -45.5q0 -24 26 -50t63.5 -50.5t75 -51.5t63.5 -64t26 -77q0 -111 -144 -179q49 -50 49 -115q0 -71 -55.5 -116t-143.5 -45q-92 0 -147 42.5t-60 118.5zM220 190l99 -78q40 14 60.5 40.5t20.5 53.5q0 24 -14.5 44.5t-49.5 46.5l-91 68q-76 -37 -76 -93q0 -42 51 -82z " unicode="§"/>
<glyph glyph-name="dieresis" d="M379 682q29 0 50 -21t21 -50t-21 -50t-50 -21t-50 21t-21 50t21 50t50 21zM137 682q29 0 50 -21t21 -50t-21 -50t-50 -21t-50 21t-21 50t21 50t50 21z" unicode="¨"/>
<glyph horiz-adv-x="740" glyph-name="copyright" d="M502 301l79 -27q-19 -61 -61 -93.5t-103 -32.5q-86 0 -137.5 56t-51.5 150q0 97 51 153.5t139 56.5q120 0 163 -119l-79 -19q-26 68 -87 68q-48 0 -74.5 -36.5t-26.5 -101.5q0 -66 25.5 -102.5t71.5 -36.5q67 0 91 84zM412 656q-125 0 -212.5 -87.5t-87.5 -211.5 q0 -125 88 -213t212 -88t212 88t88 213q0 124 -87.5 211.5t-212.5 87.5zM412 730q155 0 264.5 -109.5t109.5 -264.5t-109.5 -264.5t-264.5 -109.5t-264.5 109.5t-109.5 264.5t109.5 264.5t264.5 109.5z" unicode="©"/>
<glyph horiz-adv-x="375" glyph-name="ordfeminine" d="M416 461l-18 -60h-142l5 23q-45 -27 -85 -27q-39 0 -65 22t-26 56q0 47 42 76t110 29q30 0 59 -9q17 65 -47 65q-31 0 -72 -20l-46 43q65 32 132 32q71 0 107.5 -29.5t22.5 -86.5l-27 -114h50zM274 475l10 48q-25 6 -46 6q-28 0 -47 -13t-19 -33q0 -13 10.5 -22.5 t25.5 -9.5q30 0 66 24z" unicode="ª"/>
<glyph horiz-adv-x="531" glyph-name="guillemotleft" d="M108 0l-66 239l155 234h151l-170 -254l61 -219h-131zM353 0l-66 239l155 234h151l-170 -254l61 -219h-131z" unicode="«"/>
<glyph horiz-adv-x="668" glyph-name="logicalnot" d="M102 520h551v-365h-127v238h-424v127z" unicode="¬"/>
<glyph horiz-adv-x="740" glyph-name="registered" d="M589 156h-100q-53 109 -86 142q-14 14 -25.5 17.5t-38.5 3.5h-15v-163h-81v397h195q64 0 95.5 -32t31.5 -79q0 -46 -29 -75.5t-79 -35.5v-2q8 -3 14 -5.5t12.5 -7.5t10.5 -9t11 -13.5t11.5 -16t14 -22t16 -26t19.5 -33.5t23 -40zM324 382h71q85 0 85 55q0 54 -83 54h-73 v-109zM412 656q-125 0 -212.5 -87.5t-87.5 -211.5q0 -125 88 -213t212 -88t212 88t88 213q0 124 -87.5 211.5t-212.5 87.5zM412 730q155 0 264.5 -109.5t109.5 -264.5t-109.5 -264.5t-264.5 -109.5t-264.5 109.5t-109.5 264.5t109.5 264.5t264.5 109.5z" unicode="®"/>
<glyph glyph-name="macron" d="M26 548l28 122h401l-28 -122h-401z" unicode="¯"/>
<glyph horiz-adv-x="396" glyph-name="degree" d="M430 522q0 -70 -49.5 -119.5t-119.5 -49.5t-119 49.5t-49 119.5t49 119t119 49t119.5 -49t49.5 -119zM366 522q0 43 -30.5 73.5t-74.5 30.5q-43 0 -73.5 -30t-30.5 -74t30.5 -74.5t73.5 -30.5t74 30.5t31 74.5z" unicode="°"/>
<glyph horiz-adv-x="668" glyph-name="plusminus" d="M102 94h551v-127h-551v127zM441 489h212v-127h-212v-212h-127v212h-212v127h212v212h127v-212z" unicode="±"/>
<glyph glyph-name="twosuperior" d="M351 453l-32 -121h-240q3 44 26.5 82t54.5 63.5t61 47.5t51 44.5t21 43.5q0 20 -22 20q-44 0 -64 -80h-88q36 138 162 138q50 0 79.5 -22.5t29.5 -60.5q0 -39 -36 -70t-94.5 -69.5t-90.5 -77.5h92l14 62h76z" unicode="²"/>
<glyph glyph-name="threesuperior" d="M89 452h87q-9 -31 0 -48.5t31 -17.5q21 0 36 19.5t15 46.5q0 19 -11 27t-38 8h-14l14 58q84 0 84 66q0 22 -24 22q-33 0 -46 -49h-87q14 56 47 81q32 26 89 26q53 0 84.5 -23.5t31.5 -63.5q0 -32 -22 -57t-63 -34q51 -30 51 -74q0 -46 -41.5 -78.5t-100.5 -32.5 q-63 0 -99 32t-24 92z" unicode="³"/>
<glyph glyph-name="acute" d="M232 523h-79l90 176h174z" unicode="´"/>
<glyph horiz-adv-x="615" glyph-name="mu" d="M125 473h140l-51 -255q-13 -64 13.5 -94t63.5 -30q85 0 114 138l51 241h138l-99 -473h-126l11 46l-2 2q-30 -34 -53 -47t-52 -13q-32 0 -54.5 15.5t-43.5 51.5l-56 -270h-140z" unicode="µ"/>
<glyph horiz-adv-x="552" glyph-name="paragraph" d="M352 -212h-116v490q-91 7 -141.5 59t-50.5 138q0 93 56 148.5t158 55.5h338v-127h-55v-764h-116v764h-73v-764z" unicode="¶"/>
<glyph glyph-name="periodcentered" d="M118 271l35 153h153l-35 -153h-153z" unicode="·"/>
<glyph glyph-name="cedilla" d="M108 9h68l-17 -49q77 -11 77 -74q0 -47 -45.5 -75.5t-121.5 -28.5q-44 0 -100 9l19 45q26 -6 57 -6q67 0 67 41q0 26 -42 32z" unicode="¸"/>
<glyph glyph-name="onesuperior" d="M104 332l13 58h48l65 237h-45l13 58h146l-80 -295h41l-13 -58h-188z" unicode="¹"/>
<glyph horiz-adv-x="375" glyph-name="ordmasculine" d="M103 510q0 76 54.5 128.5t134.5 52.5q59 0 96.5 -34t37.5 -89q0 -74 -55 -124.5t-135 -50.5q-59 0 -96 32.5t-37 84.5zM198 508q0 -25 12.5 -39t33.5 -14q35 0 61.5 36.5t26.5 83.5q0 23 -13.5 37.5t-35.5 14.5q-35 0 -60 -35t-25 -84z" unicode="º"/>
<glyph horiz-adv-x="531" glyph-name="guillemotright" d="M468 473l66 -239l-155 -234h-151l170 254l-61 219h131zM223 473l66 -239l-155 -234h-151l170 254l-61 219h131z" unicode="»"/>
<glyph horiz-adv-x="927" glyph-name="onequarter" d="M549 0l12 53h42l9 42h-119l-5 61l197 203h88l-60 -213h62l-12 -51h-62l-9 -42h35l-13 -53h-165zM71 0l651 679h89l-651 -679h-89zM624 146l29 104l-2 2l-103 -106h76zM85 332l13 58h48l65 237h-45l13 58h146l-80 -295h41l-13 -58h-188z" unicode="¼"/>
<glyph horiz-adv-x="927" glyph-name="onehalf" d="M777 121l-32 -121h-240q3 44 26.5 82t54.5 63.5t61 47.5t51 44.5t21 43.5q0 20 -22 20q-44 0 -64 -80h-88q36 138 162 138q50 0 79.5 -22.5t29.5 -60.5q0 -39 -36 -70t-94.5 -69.5t-90.5 -77.5h92l14 62h76zM71 0l651 679h89l-651 -679h-89zM85 332l13 58h48l65 237h-45 l13 58h146l-80 -295h41l-13 -58h-188z" unicode="½"/>
<glyph horiz-adv-x="927" glyph-name="threequarters" d="M567 0l12 53h42l9 42h-119l-5 61l197 203h88l-60 -213h62l-12 -51h-62l-9 -42h35l-13 -53h-165zM89 0l651 679h89l-651 -679h-89zM642 146l29 104l-2 2l-103 -106h76zM89 452h87q-9 -31 0 -48.5t31 -17.5q21 0 36 19.5t15 46.5q0 19 -11 27t-38 8h-14l14 58q84 0 84 66 q0 22 -24 22q-33 0 -46 -49h-87q14 56 47 81q32 26 89 26q53 0 84.5 -23.5t31.5 -63.5q0 -32 -22 -57t-63 -34q51 -30 51 -74q0 -46 -41.5 -78.5t-100.5 -32.5q-63 0 -99 32t-24 92z" unicode="¾"/>
<glyph horiz-adv-x="542" glyph-name="questiondown" d="M358 241l-16 -174q-75 4 -123.5 -27.5t-48.5 -81.5q0 -34 23.5 -56t61.5 -22q35 0 61.5 20.5t36.5 55.5h142q-28 -78 -93 -124.5t-169 -46.5q-99 0 -153.5 48t-54.5 125q0 82 63.5 142.5t172.5 66.5l32 74h65zM453 473l-35 -153h-153l35 153h153z" unicode="¿"/>
<glyph horiz-adv-x="646" glyph-name="Agrave" d="M-37 0l25 106h65l257 467h-66l24 106h393l-24 -106h-58l20 -467h70l-25 -106h-283l25 106h63v114h-206l-57 -114h63l-25 -106h-261zM445 317l-8 262h-7l-136 -262h151zM483 730l-185 176h174l90 -176h-79z" unicode="À"/>
<glyph horiz-adv-x="646" glyph-name="Aacute" d="M-37 0l25 106h65l257 467h-66l24 106h393l-24 -106h-58l20 -467h70l-25 -106h-283l25 106h63v114h-206l-57 -114h63l-25 -106h-261zM445 317l-8 262h-7l-136 -262h151zM454 730h-79l90 176h174z" unicode="Á"/>
<glyph horiz-adv-x="646" glyph-name="Acircumflex" d="M-37 0l25 106h65l257 467h-66l24 106h393l-24 -106h-58l20 -467h70l-25 -106h-283l25 106h63v114h-206l-57 -114h63l-25 -106h-261zM445 317l-8 262h-7l-136 -262h151zM253 726l169 182h137l72 -182h-60l-87 112l-166 -112h-65z" unicode="Â"/>
<glyph horiz-adv-x="646" glyph-name="Atilde" d="M-37 0l25 106h65l257 467h-66l24 106h393l-24 -106h-58l20 -467h70l-25 -106h-283l25 106h63v114h-206l-57 -114h63l-25 -106h-261zM445 317l-8 262h-7l-136 -262h151zM596 895h71q4 -71 -30 -114.5t-85 -43.5q-27 0 -79.5 27.5t-75.5 27.5q-38 0 -38 -56h-73 q-1 79 34 118.5t79 39.5q29 0 84 -27t71 -27q38 0 42 55z" unicode="Ã"/>
<glyph horiz-adv-x="646" glyph-name="Adieresis" d="M-37 0l25 106h65l257 467h-66l24 106h393l-24 -106h-58l20 -467h70l-25 -106h-283l25 106h63v114h-206l-57 -114h63l-25 -106h-261zM445 317l-8 262h-7l-136 -262h151zM601 889q29 0 50 -21t21 -50t-21 -50t-50 -21t-50 21t-21 50t21 50t50 21zM359 889q29 0 50 -21 t21 -50t-21 -50t-50 -21t-50 21t-21 50t21 50t50 21z" unicode="Ä"/>
<glyph horiz-adv-x="646" glyph-name="Aring" d="M-37 0l25 106h65l257 467h-66l24 106h393l-24 -106h-58l20 -467h70l-25 -106h-283l25 106h63v114h-206l-57 -114h63l-25 -106h-261zM445 317l-8 262h-7l-136 -262h151zM478 929q43 0 73 -30t30 -73t-30 -73t-73 -30t-73 30t-30 73t30 73t73 30zM478 882 q-23 0 -39.5 -16.5t-16.5 -39.5t16.5 -39.5t39.5 -16.5t39.5 16.5t16.5 39.5t-16.5 39.5t-39.5 16.5z" unicode="Å"/>
<glyph horiz-adv-x="927" glyph-name="AE" d="M-48 0l25 106h45l300 467h-68l25 106h734l-50 -217h-110l25 111h-207l-42 -184h159l-23 -98h-159l-42 -185h211l24 107h106l-49 -213h-559l25 106h72l42 185h-165l-114 -185h64l-24 -106h-245zM459 389l53 205h-59l-122 -205h128z" unicode="Æ"/>
<glyph horiz-adv-x="771" glyph-name="Ccedilla" d="M300 -97l34 96q-113 21 -182.5 100.5t-69.5 191.5q0 162 135.5 280.5t320.5 118.5q65 0 108 -17.5t79 -58.5l15 65h109l-51 -221h-109q-7 53 -47.5 82.5t-105.5 29.5q-109 0 -191.5 -86t-82.5 -200q0 -73 44.5 -120t114.5 -47q119 0 217 118l109 -80q-63 -78 -150.5 -121 t-183.5 -43h-13l-11 -31q77 -11 77 -74q0 -47 -45.5 -75.5t-121.5 -28.5q-44 0 -100 9l19 45q26 -6 57 -6q67 0 67 41q0 26 -42 32z" unicode="Ç"/>
<glyph horiz-adv-x="635" glyph-name="Egrave" d="M9 0l25 106h64l108 467h-64l24 106h555l-50 -216h-127l25 110h-192l-39 -174h159l-25 -106h-159l-43 -187h196l25 107h123l-50 -213h-555zM477 730l-185 176h174l90 -176h-79z" unicode="È"/>
<glyph horiz-adv-x="635" glyph-name="Eacute" d="M9 0l25 106h64l108 467h-64l24 106h555l-50 -216h-127l25 110h-192l-39 -174h159l-25 -106h-159l-43 -187h196l25 107h123l-50 -213h-555zM448 730h-79l90 176h174z" unicode="É"/>
<glyph horiz-adv-x="635" glyph-name="Ecircumflex" d="M9 0l25 106h64l108 467h-64l24 106h555l-50 -216h-127l25 110h-192l-39 -174h159l-25 -106h-159l-43 -187h196l25 107h123l-50 -213h-555zM247 726l169 182h137l72 -182h-60l-87 112l-166 -112h-65z" unicode="Ê"/>
<glyph horiz-adv-x="635" glyph-name="Edieresis" d="M9 0l25 106h64l108 467h-64l24 106h555l-50 -216h-127l25 110h-192l-39 -174h159l-25 -106h-159l-43 -187h196l25 107h123l-50 -213h-555zM595 889q29 0 50 -21t21 -50t-21 -50t-50 -21t-50 21t-21 50t21 50t50 21zM353 889q29 0 50 -21t21 -50t-21 -50t-50 -21t-50 21 t-21 50t21 50t50 21z" unicode="Ë"/>
<glyph horiz-adv-x="396" glyph-name="Igrave" d="M-9 0l24 106h86l108 467h-96l24 106h343l-24 -106h-74l-108 -467h98l-25 -106h-356zM318 730l-185 176h174l90 -176h-79z" unicode="Ì"/>
<glyph horiz-adv-x="396" glyph-name="Iacute" d="M-9 0l24 106h86l108 467h-96l24 106h343l-24 -106h-74l-108 -467h98l-25 -106h-356zM329 730h-79l90 176h174z" unicode="Í"/>
<glyph horiz-adv-x="396" glyph-name="Icircumflex" d="M-9 0l24 106h86l108 467h-96l24 106h343l-24 -106h-74l-108 -467h98l-25 -106h-356zM128 726l169 182h137l72 -182h-60l-87 112l-166 -112h-65z" unicode="Î"/>
<glyph horiz-adv-x="396" glyph-name="Idieresis" d="M-9 0l24 106h86l108 467h-96l24 106h343l-24 -106h-74l-108 -467h98l-25 -106h-356zM476 889q29 0 50 -21t21 -50t-21 -50t-50 -21t-50 21t-21 50t21 50t50 21zM234 889q29 0 50 -21t21 -50t-21 -50t-50 -21t-50 21t-21 50t21 50t50 21z" unicode="Ï"/>
<glyph horiz-adv-x="760" glyph-name="Eth" d="M-8 0l25 106h82l43 187h-98l24 106h98l40 174h-82l25 106h280q90 0 156.5 -26t102 -70.5t52 -95t16.5 -107.5q0 -166 -102.5 -273t-271.5 -107h-390zM271 106h103q47 0 84.5 24t59.5 59t36.5 78.5t19.5 79.5t5 65q0 71 -43 116t-117 45h-41l-40 -174h126l-24 -106h-126z " unicode="Ð"/>
<glyph horiz-adv-x="792" glyph-name="Ntilde" d="M10 0l25 106h64l107 467h-64l25 106h253l153 -470h2l83 364h-64l25 106h245l-25 -106h-64l-133 -579h-149l-175 547h-2l-99 -435h71l-25 -106h-253zM669 895h71q4 -71 -30 -114.5t-85 -43.5q-27 0 -79.5 27.5t-75.5 27.5q-38 0 -38 -56h-73q-1 79 34 118.5t79 39.5 q29 0 84 -27t71 -27q38 0 42 55z" unicode="Ñ"/>
<glyph horiz-adv-x="823" glyph-name="Ograve" d="M84 273q0 106 54 201.5t155 156.5t224 61q98 0 170 -42t104.5 -104.5t32.5 -136.5q0 -175 -128 -296.5t-314 -121.5q-129 0 -213.5 80t-84.5 202zM500 572q-57 0 -104 -31.5t-74.5 -80t-42.5 -100.5t-15 -99q0 -70 38 -110t106 -40q63 0 112 35.5t74 88.5t37.5 102.5 t12.5 89.5q0 64 -40 104.5t-104 40.5zM571 730l-185 176h174l90 -176h-79z" unicode="Ò"/>
<glyph horiz-adv-x="823" glyph-name="Oacute" d="M84 273q0 106 54 201.5t155 156.5t224 61q98 0 170 -42t104.5 -104.5t32.5 -136.5q0 -175 -128 -296.5t-314 -121.5q-129 0 -213.5 80t-84.5 202zM500 572q-57 0 -104 -31.5t-74.5 -80t-42.5 -100.5t-15 -99q0 -70 38 -110t106 -40q63 0 112 35.5t74 88.5t37.5 102.5 t12.5 89.5q0 64 -40 104.5t-104 40.5zM542 730h-79l90 176h174z" unicode="Ó"/>
<glyph horiz-adv-x="823" glyph-name="Ocircumflex" d="M84 273q0 106 54 201.5t155 156.5t224 61q98 0 170 -42t104.5 -104.5t32.5 -136.5q0 -175 -128 -296.5t-314 -121.5q-129 0 -213.5 80t-84.5 202zM500 572q-57 0 -104 -31.5t-74.5 -80t-42.5 -100.5t-15 -99q0 -70 38 -110t106 -40q63 0 112 35.5t74 88.5t37.5 102.5 t12.5 89.5q0 64 -40 104.5t-104 40.5zM341 726l169 182h137l72 -182h-60l-87 112l-166 -112h-65z" unicode="Ô"/>
<glyph horiz-adv-x="823" glyph-name="Otilde" d="M84 273q0 106 54 201.5t155 156.5t224 61q98 0 170 -42t104.5 -104.5t32.5 -136.5q0 -175 -128 -296.5t-314 -121.5q-129 0 -213.5 80t-84.5 202zM500 572q-57 0 -104 -31.5t-74.5 -80t-42.5 -100.5t-15 -99q0 -70 38 -110t106 -40q63 0 112 35.5t74 88.5t37.5 102.5 t12.5 89.5q0 64 -40 104.5t-104 40.5zM684 895h71q4 -71 -30 -114.5t-85 -43.5q-27 0 -79.5 27.5t-75.5 27.5q-38 0 -38 -56h-73q-1 79 34 118.5t79 39.5q29 0 84 -27t71 -27q38 0 42 55z" unicode="Õ"/>
<glyph horiz-adv-x="823" glyph-name="Odieresis" d="M84 273q0 106 54 201.5t155 156.5t224 61q98 0 170 -42t104.5 -104.5t32.5 -136.5q0 -175 -128 -296.5t-314 -121.5q-129 0 -213.5 80t-84.5 202zM500 572q-57 0 -104 -31.5t-74.5 -80t-42.5 -100.5t-15 -99q0 -70 38 -110t106 -40q63 0 112 35.5t74 88.5t37.5 102.5 t12.5 89.5q0 64 -40 104.5t-104 40.5zM689 889q29 0 50 -21t21 -50t-21 -50t-50 -21t-50 21t-21 50t21 50t50 21zM447 889q29 0 50 -21t21 -50t-21 -50t-50 -21t-50 21t-21 50t21 50t50 21z" unicode="Ö"/>
<glyph horiz-adv-x="667" glyph-name="multiply" d="M468 332l172 -172l-89 -89l-173 173l-173 -173l-89 89l172 172l-174 174l90 90l174 -174l174 174l90 -90z" unicode="×"/>
<glyph horiz-adv-x="823" glyph-name="Oslash" d="M686 654l45 52l53 -44l-44 -49q84 -84 84 -202q0 -176 -128.5 -298t-313.5 -122q-79 0 -154 38l-3 1l-63 -72l-50 42l59 69q-87 79 -87 204q0 78 31.5 152.5t86.5 134t138.5 96t179.5 36.5q100 0 166 -38zM278 190l312 355q-29 21 -67 26.5t-81.5 -9t-77.5 -48.5 q-63 -63 -88.5 -165t2.5 -159zM632 491l-313 -355q48 -33 115 -23t112 55q52 52 82.5 154.5t3.5 168.5z" unicode="Ø"/>
<glyph horiz-adv-x="708" glyph-name="Ugrave" d="M148 573l24 106h295l-24 -106h-70l-79 -338q-16 -69 11 -98t77 -29q53 0 86 38.5t52 120.5l71 306h-64l24 106h233l-24 -106h-52l-79 -342q-31 -133 -103.5 -187.5t-179.5 -54.5q-119 0 -188 69q-62 62 -29 205l71 310h-52zM474 730l-185 176h174l90 -176h-79z" unicode="Ù"/>
<glyph horiz-adv-x="708" glyph-name="Uacute" d="M148 573l24 106h295l-24 -106h-70l-79 -338q-16 -69 11 -98t77 -29q53 0 86 38.5t52 120.5l71 306h-64l24 106h233l-24 -106h-52l-79 -342q-31 -133 -103.5 -187.5t-179.5 -54.5q-119 0 -188 69q-62 62 -29 205l71 310h-52zM485 730h-79l90 176h174z" unicode="Ú"/>
<glyph horiz-adv-x="708" glyph-name="Ucircumflex" d="M148 573l24 106h295l-24 -106h-70l-79 -338q-16 -69 11 -98t77 -29q53 0 86 38.5t52 120.5l71 306h-64l24 106h233l-24 -106h-52l-79 -342q-31 -133 -103.5 -187.5t-179.5 -54.5q-119 0 -188 69q-62 62 -29 205l71 310h-52zM284 726l169 182h137l72 -182h-60l-87 112 l-166 -112h-65z" unicode="Û"/>
<glyph horiz-adv-x="708" glyph-name="Udieresis" d="M148 573l24 106h295l-24 -106h-70l-79 -338q-16 -69 11 -98t77 -29q53 0 86 38.5t52 120.5l71 306h-64l24 106h233l-24 -106h-52l-79 -342q-31 -133 -103.5 -187.5t-179.5 -54.5q-119 0 -188 69q-62 62 -29 205l71 310h-52zM632 889q29 0 50 -21t21 -50t-21 -50t-50 -21 t-50 21t-21 50t21 50t50 21zM390 889q29 0 50 -21t21 -50t-21 -50t-50 -21t-50 21t-21 50t21 50t50 21z" unicode="Ü"/>
<glyph horiz-adv-x="625" glyph-name="Yacute" d="M126 0l25 106h64l43 187l-115 280h-67l25 106h282l-25 -106h-55l69 -188l160 188h-56l25 106h273l-24 -106h-64l-254 -280l-44 -187h70l-26 -106h-306zM443 730h-79l90 176h174z" unicode="Ý"/>
<glyph horiz-adv-x="646" glyph-name="Thorn" d="M11 0l24 106h64l108 467h-76l25 106h330l-25 -106h-82l-7 -32h47q131 0 189 -44.5t58 -128.5q0 -97 -64 -161q-69 -69 -227 -69h-97l-7 -32h82l-24 -106h-318zM300 236h59q69 0 99.5 41.5t30.5 92.5q0 73 -93 73h-47z" unicode="Þ"/>
<glyph horiz-adv-x="615" glyph-name="germandbls" d="M6 0l23 101h52l93 402q22 95 78.5 140.5t164.5 45.5q111 0 164.5 -42t53.5 -111q0 -57 -40.5 -100t-112.5 -57v-2q118 -36 118 -158q0 -94 -63 -159.5t-154 -65.5q-36 0 -86 17l23 98q24 -9 41 -9q46 0 71.5 47t25.5 99q0 41 -24.5 66.5t-67.5 18.5l24 102 q55 0 79.5 26.5t24.5 58.5q0 33 -23 54.5t-58 21.5q-73 0 -91 -79l-96 -414h41l-23 -101h-238z" unicode="ß"/>
<glyph horiz-adv-x="573" glyph-name="agrave" d="M554 101l-29 -101h-218l9 38q-70 -44 -128 -44q-62 0 -102 37t-40 94q0 76 61.5 125t178.5 49q27 0 87 -14l8 39q6 31 -18.5 49.5t-62.5 18.5q-47 0 -111 -32l-72 71q102 54 205 54q112 0 165.5 -51t33.5 -137l-46 -196h79zM336 126l18 78q-38 10 -72 10 q-45 0 -73.5 -21.5t-28.5 -54.5q0 -22 16.5 -37.5t39.5 -15.5q47 0 100 41zM381 523l-185 176h174l90 -176h-79z" unicode="à"/>
<glyph horiz-adv-x="573" glyph-name="aacute" d="M554 101l-29 -101h-218l9 38q-70 -44 -128 -44q-62 0 -102 37t-40 94q0 76 61.5 125t178.5 49q27 0 87 -14l8 39q6 31 -18.5 49.5t-62.5 18.5q-47 0 -111 -32l-72 71q102 54 205 54q112 0 165.5 -51t33.5 -137l-46 -196h79zM336 126l18 78q-38 10 -72 10 q-45 0 -73.5 -21.5t-28.5 -54.5q0 -22 16.5 -37.5t39.5 -15.5q47 0 100 41zM352 523h-79l90 176h174z" unicode="á"/>
<glyph horiz-adv-x="573" glyph-name="acircumflex" d="M554 101l-29 -101h-218l9 38q-70 -44 -128 -44q-62 0 -102 37t-40 94q0 76 61.5 125t178.5 49q27 0 87 -14l8 39q6 31 -18.5 49.5t-62.5 18.5q-47 0 -111 -32l-72 71q102 54 205 54q112 0 165.5 -51t33.5 -137l-46 -196h79zM336 126l18 78q-38 10 -72 10 q-45 0 -73.5 -21.5t-28.5 -54.5q0 -22 16.5 -37.5t39.5 -15.5q47 0 100 41zM151 519l169 182h137l72 -182h-60l-87 112l-166 -112h-65z" unicode="â"/>
<glyph horiz-adv-x="573" glyph-name="atilde" d="M554 101l-29 -101h-218l9 38q-70 -44 -128 -44q-62 0 -102 37t-40 94q0 76 61.5 125t178.5 49q27 0 87 -14l8 39q6 31 -18.5 49.5t-62.5 18.5q-47 0 -111 -32l-72 71q102 54 205 54q112 0 165.5 -51t33.5 -137l-46 -196h79zM336 126l18 78q-38 10 -72 10 q-45 0 -73.5 -21.5t-28.5 -54.5q0 -22 16.5 -37.5t39.5 -15.5q47 0 100 41zM494 688h71q4 -71 -30 -114.5t-85 -43.5q-27 0 -79.5 27.5t-75.5 27.5q-38 0 -38 -56h-73q-1 79 34 118.5t79 39.5q29 0 84 -27t71 -27q38 0 42 55z" unicode="ã"/>
<glyph horiz-adv-x="573" glyph-name="adieresis" d="M554 101l-29 -101h-218l9 38q-70 -44 -128 -44q-62 0 -102 37t-40 94q0 76 61.5 125t178.5 49q27 0 87 -14l8 39q6 31 -18.5 49.5t-62.5 18.5q-47 0 -111 -32l-72 71q102 54 205 54q112 0 165.5 -51t33.5 -137l-46 -196h79zM336 126l18 78q-38 10 -72 10 q-45 0 -73.5 -21.5t-28.5 -54.5q0 -22 16.5 -37.5t39.5 -15.5q47 0 100 41zM499 682q29 0 50 -21t21 -50t-21 -50t-50 -21t-50 21t-21 50t21 50t50 21zM257 682q29 0 50 -21t21 -50t-21 -50t-50 -21t-50 21t-21 50t21 50t50 21z" unicode="ä"/>
<glyph horiz-adv-x="573" glyph-name="aring" d="M554 101l-29 -101h-218l9 38q-70 -44 -128 -44q-62 0 -102 37t-40 94q0 76 61.5 125t178.5 49q27 0 87 -14l8 39q6 31 -18.5 49.5t-62.5 18.5q-47 0 -111 -32l-72 71q102 54 205 54q112 0 165.5 -51t33.5 -137l-46 -196h79zM336 126l18 78q-38 10 -72 10 q-45 0 -73.5 -21.5t-28.5 -54.5q0 -22 16.5 -37.5t39.5 -15.5q47 0 100 41zM376 722q43 0 73 -30t30 -73t-30 -73t-73 -30t-73 30t-30 73t30 73t73 30zM376 675q-23 0 -39.5 -16.5t-16.5 -39.5t16.5 -39.5t39.5 -16.5t39.5 16.5t16.5 39.5t-16.5 39.5t-39.5 16.5z" unicode="å"/>
<glyph horiz-adv-x="844" glyph-name="ae" d="M679 142l106 -49q-85 -107 -217 -107q-120 0 -182 89q-109 -89 -207 -89q-62 0 -101 38t-39 99q0 78 63 128.5t160 50.5q50 0 102 -14l8 35q8 33 -18 52t-65 19q-53 0 -109 -31l-72 72q97 50 202 50q123 0 169 -50q71 50 148 50q105 0 168 -79t33 -199h-333 q-14 -57 13 -92t75 -35q29 0 55 16.5t41 45.5zM324 114l21 93q-40 10 -66 10q-47 0 -76 -23.5t-29 -61.5q0 -24 15.5 -39t40.5 -15q23 0 51 10.5t43 25.5zM511 284h189q10 50 -14 78t-62 28t-69 -29t-44 -77z" unicode="æ"/>
<glyph horiz-adv-x="531" glyph-name="ccedilla" d="M180 -97l32 90q-73 16 -115 69.5t-42 133.5q0 116 81 199t195 83q61 0 114 -36l7 31h106l-41 -177h-106q-2 32 -23 50q-20 18 -55 18q-54 0 -91 -49t-37 -122q0 -40 23 -65.5t58 -25.5q66 0 109 71l104 -51q-80 -133 -221 -136l-9 -26q77 -11 77 -74q0 -47 -45.5 -75.5 t-121.5 -28.5q-44 0 -100 9l19 45q26 -6 57 -6q67 0 67 41q0 26 -42 32z" unicode="ç"/>
<glyph horiz-adv-x="552" glyph-name="egrave" d="M382 141l107 -48q-71 -107 -213 -107q-99 0 -157.5 55.5t-58.5 149.5q0 118 77.5 206t195.5 88q102 0 165.5 -73.5t37.5 -204.5h-336q-10 -61 15.5 -94t69.5 -33q61 0 97 61zM218 284h187q8 49 -16 77.5t-61 28.5q-75 0 -110 -106zM371 523l-185 176h174l90 -176h-79z " unicode="è"/>
<glyph horiz-adv-x="552" glyph-name="eacute" d="M382 141l107 -48q-71 -107 -213 -107q-99 0 -157.5 55.5t-58.5 149.5q0 118 77.5 206t195.5 88q102 0 165.5 -73.5t37.5 -204.5h-336q-10 -61 15.5 -94t69.5 -33q61 0 97 61zM218 284h187q8 49 -16 77.5t-61 28.5q-75 0 -110 -106zM342 523h-79l90 176h174z" unicode="é"/>
<glyph horiz-adv-x="552" glyph-name="ecircumflex" d="M382 141l107 -48q-71 -107 -213 -107q-99 0 -157.5 55.5t-58.5 149.5q0 118 77.5 206t195.5 88q102 0 165.5 -73.5t37.5 -204.5h-336q-10 -61 15.5 -94t69.5 -33q61 0 97 61zM218 284h187q8 49 -16 77.5t-61 28.5q-75 0 -110 -106zM141 519l169 182h137l72 -182h-60 l-87 112l-166 -112h-65z" unicode="ê"/>
<glyph horiz-adv-x="552" glyph-name="edieresis" d="M382 141l107 -48q-71 -107 -213 -107q-99 0 -157.5 55.5t-58.5 149.5q0 118 77.5 206t195.5 88q102 0 165.5 -73.5t37.5 -204.5h-336q-10 -61 15.5 -94t69.5 -33q61 0 97 61zM218 284h187q8 49 -16 77.5t-61 28.5q-75 0 -110 -106zM489 682q29 0 50 -21t21 -50t-21 -50 t-50 -21t-50 21t-21 50t21 50t50 21zM247 682q29 0 50 -21t21 -50t-21 -50t-50 -21t-50 21t-21 50t21 50t50 21z" unicode="ë"/>
<glyph glyph-name="igrave" d="M13 0l23 101h52l63 271h-64l23 101h209l-86 -372h64l-23 -101h-261zM201 523l-185 176h174l90 -176h-79z" unicode="ì"/>
<glyph glyph-name="iacute" d="M13 0l23 101h52l63 271h-64l23 101h209l-86 -372h64l-23 -101h-261zM232 523h-79l90 176h174z" unicode="í"/>
<glyph glyph-name="icircumflex" d="M13 0l23 101h52l63 271h-64l23 101h209l-86 -372h64l-23 -101h-261zM31 519l169 182h137l72 -182h-60l-87 112l-166 -112h-65z" unicode="î"/>
<glyph glyph-name="idieresis" d="M13 0l23 101h52l63 271h-64l23 101h209l-86 -372h64l-23 -101h-261zM379 682q29 0 50 -21t21 -50t-21 -50t-50 -21t-50 21t-21 50t21 50t50 21zM137 682q29 0 50 -21t21 -50t-21 -50t-50 -21t-50 21t-21 50t21 50t50 21z" unicode="ï"/>
<glyph horiz-adv-x="635" glyph-name="eth" d="M229 177q0 -38 19.5 -59.5t51.5 -21.5q33 0 60 22t42 55t22.5 65t7.5 58q0 38 -20 61.5t-52 23.5q-34 0 -61 -23t-41.5 -57t-21.5 -66t-7 -58zM601 640l-107 -42q49 -63 72 -138.5t23 -133.5q0 -42 -9.5 -85.5t-33 -89.5t-57.5 -81.5t-87 -58t-118 -22.5q-90 0 -146 57.5 t-56 145.5q0 121 86 207t195 86q44 0 79 -26l2 2q-16 43 -60 94l-108 -42l-59 50l118 46q-29 27 -51 39l107 42q30 -18 53 -38l98 38z" unicode="ð"/>
<glyph horiz-adv-x="604" glyph-name="ntilde" d="M3 0l23 101h52l63 271h-71l23 101h216l-14 -59q81 49 109 57q26 8 54 8q57 0 88.5 -42t15.5 -111l-52 -225h64l-23 -101h-209l69 299q8 33 -1.5 49.5t-29.5 16.5q-35 0 -108 -52l-49 -212h60l-23 -101h-257zM510 688h71q4 -71 -30 -114.5t-85 -43.5q-27 0 -79.5 27.5 t-75.5 27.5q-38 0 -38 -56h-73q-1 79 34 118.5t79 39.5q29 0 84 -27t71 -27q38 0 42 55z" unicode="ñ"/>
<glyph horiz-adv-x="573" glyph-name="ograve" d="M57 183q0 128 84 215t207 87q101 0 153.5 -63t52.5 -144q0 -121 -83 -206.5t-209 -85.5q-91 0 -148 54.5t-57 142.5zM204 178q0 -39 18.5 -62.5t50.5 -23.5q62 0 98 66t36 134q0 39 -19.5 63t-52.5 24q-45 0 -76.5 -38t-43 -81t-11.5 -82zM381 523l-185 176h174l90 -176 h-79z" unicode="ò"/>
<glyph horiz-adv-x="573" glyph-name="oacute" d="M57 183q0 128 84 215t207 87q101 0 153.5 -63t52.5 -144q0 -121 -83 -206.5t-209 -85.5q-91 0 -148 54.5t-57 142.5zM204 178q0 -39 18.5 -62.5t50.5 -23.5q62 0 98 66t36 134q0 39 -19.5 63t-52.5 24q-45 0 -76.5 -38t-43 -81t-11.5 -82zM352 523h-79l90 176h174z" unicode="ó"/>
<glyph horiz-adv-x="573" glyph-name="ocircumflex" d="M57 183q0 128 84 215t207 87q101 0 153.5 -63t52.5 -144q0 -121 -83 -206.5t-209 -85.5q-91 0 -148 54.5t-57 142.5zM204 178q0 -39 18.5 -62.5t50.5 -23.5q62 0 98 66t36 134q0 39 -19.5 63t-52.5 24q-45 0 -76.5 -38t-43 -81t-11.5 -82zM151 519l169 182h137l72 -182 h-60l-87 112l-166 -112h-65z" unicode="ô"/>
<glyph horiz-adv-x="573" glyph-name="otilde" d="M57 183q0 128 84 215t207 87q101 0 153.5 -63t52.5 -144q0 -121 -83 -206.5t-209 -85.5q-91 0 -148 54.5t-57 142.5zM204 178q0 -39 18.5 -62.5t50.5 -23.5q62 0 98 66t36 134q0 39 -19.5 63t-52.5 24q-45 0 -76.5 -38t-43 -81t-11.5 -82zM494 688h71q4 -71 -30 -114.5 t-85 -43.5q-27 0 -79.5 27.5t-75.5 27.5q-38 0 -38 -56h-73q-1 79 34 118.5t79 39.5q29 0 84 -27t71 -27q38 0 42 55z" unicode="õ"/>
<glyph horiz-adv-x="573" glyph-name="odieresis" d="M57 183q0 128 84 215t207 87q101 0 153.5 -63t52.5 -144q0 -121 -83 -206.5t-209 -85.5q-91 0 -148 54.5t-57 142.5zM204 178q0 -39 18.5 -62.5t50.5 -23.5q62 0 98 66t36 134q0 39 -19.5 63t-52.5 24q-45 0 -76.5 -38t-43 -81t-11.5 -82zM499 682q29 0 50 -21t21 -50 t-21 -50t-50 -21t-50 21t-21 50t21 50t50 21zM257 682q29 0 50 -21t21 -50t-21 -50t-50 -21t-50 21t-21 50t21 50t50 21z" unicode="ö"/>
<glyph horiz-adv-x="668" glyph-name="divide" d="M377 203q31 0 53 -21.5t22 -52.5t-22 -53t-53 -22t-52.5 22t-21.5 53t21.5 52.5t52.5 21.5zM377 621q31 0 53 -21.5t22 -52.5t-22 -53t-53 -22t-52.5 22t-21.5 53t21.5 52.5t52.5 21.5zM102 401h551v-127h-551v127z" unicode="÷"/>
<glyph horiz-adv-x="573" glyph-name="oslash" d="M60 -6l47 56q-50 56 -50 138q0 125 84.5 211t206.5 86q64 0 109 -27l49 57l45 -40l-48 -56q51 -61 51 -140q0 -56 -23 -112.5t-62 -96.5q-82 -84 -206 -84q-65 0 -107 26l-49 -59zM204 162l173 202q-23 18 -55.5 14t-61.5 -33q-21 -21 -41 -78t-15 -105zM407 307 l-173 -203q19 -16 52 -10.5t60 32.5q63 63 61 181z" unicode="ø"/>
<glyph horiz-adv-x="604" glyph-name="ugrave" d="M569 101l-24 -101h-209l15 62q-98 -67 -171 -67q-40 0 -70 29t-30 68q0 28 12 86l45 194h-64l24 101h209l-71 -305q-7 -27 1 -43t26 -16q19 0 52.5 16.5t59.5 38.5l48 208h-64l24 101h209l-86 -372h64zM357 523l-185 176h174l90 -176h-79z" unicode="ù"/>
<glyph horiz-adv-x="604" glyph-name="uacute" d="M569 101l-24 -101h-209l15 62q-98 -67 -171 -67q-40 0 -70 29t-30 68q0 28 12 86l45 194h-64l24 101h209l-71 -305q-7 -27 1 -43t26 -16q19 0 52.5 16.5t59.5 38.5l48 208h-64l24 101h209l-86 -372h64zM368 523h-79l90 176h174z" unicode="ú"/>
<glyph horiz-adv-x="604" glyph-name="ucircumflex" d="M569 101l-24 -101h-209l15 62q-98 -67 -171 -67q-40 0 -70 29t-30 68q0 28 12 86l45 194h-64l24 101h209l-71 -305q-7 -27 1 -43t26 -16q19 0 52.5 16.5t59.5 38.5l48 208h-64l24 101h209l-86 -372h64zM167 519l169 182h137l72 -182h-60l-87 112l-166 -112h-65z" unicode="û"/>
<glyph horiz-adv-x="604" glyph-name="udieresis" d="M569 101l-24 -101h-209l15 62q-98 -67 -171 -67q-40 0 -70 29t-30 68q0 28 12 86l45 194h-64l24 101h209l-71 -305q-7 -27 1 -43t26 -16q19 0 52.5 16.5t59.5 38.5l48 208h-64l24 101h209l-86 -372h64zM515 682q29 0 50 -21t21 -50t-21 -50t-50 -21t-50 21t-21 50t21 50 t50 21zM273 682q29 0 50 -21t21 -50t-21 -50t-50 -21t-50 21t-21 50t21 50t50 21z" unicode="ü"/>
<glyph horiz-adv-x="563" glyph-name="yacute" d="M15 -215l23 101h79l56 99l-72 387h-52l24 101h248l-24 -101h-57l25 -226h2l130 226h-57l23 101h247l-23 -101h-64l-340 -587h-168zM347 523h-79l90 176h174z" unicode="ý"/>
<glyph horiz-adv-x="604" glyph-name="thorn" d="M-51 -215l23 101h67l160 692h-67l23 101h212l-62 -268l2 -2q67 70 142 70q72 0 116 -53.5t44 -139.5q0 -125 -72 -212.5t-175 -87.5q-86 0 -137 78l-41 -178h77l-23 -101h-289zM259 186q0 -37 22.5 -62.5t55.5 -25.5q57 0 91 57t34 124q0 40 -20 63t-54 23 q-50 0 -89.5 -55t-39.5 -124z" unicode="þ"/>
</font>
</defs>
</svg>
